<?xml version="1.0" encoding="UTF-8"?><svg xmlns="http://www.w3.org/2000/svg" viewBox="0 0 80 80"><defs><style>.a{fill:#ba0c2f;stroke-width:0px;}</style></defs><path class="a" d="m76,22.8L40,7.92,4,22.8v2.4l11,4.55v13.54l.09.2c.18.39,4.54,9.51,24.91,9.51,7.79,0,13.23-1.33,17-3v9h-.45l-3.67,10.17.32.43c.07.1,1.83,2.4,4.8,2.4s4.73-2.3,4.8-2.4l.32-.43-3.67-10.17h-.45v-10c4.47-2.51,5.82-5.3,5.91-5.51l.09-.2v-13.54l11-4.55v-2.4Zm-15.15,45.97c-.5.47-1.51,1.23-2.85,1.23s-2.36-.76-2.85-1.23l2.81-7.77h.1l2.81,7.77Zm-20.85-17.77c-17.46,0-22.32-7.02-23-8.18v-12.25l23,9.51,17-7.03v14.72c-3.35,1.64-8.72,3.22-17,3.22Zm23-8.18c-.3.52-1.41,2.17-4,3.83v-14.42l4-1.65v12.25Zm-5-12.34l-13.32-5.43c.25-.41.32-.79.32-1.05,0-.46-.19-1.36-1.46-2.12-1.89-1.13-5.18-1.13-7.07,0-1.27.76-1.46,1.66-1.46,2.12s.19,1.36,1.46,2.12c.95.57,2.2.88,3.54.88,1.04,0,2.02-.19,2.85-.54l12.52,5.11-15.37,6.35L6.33,24l33.67-13.92,33.67,13.92-15.67,6.48Zm-20.5-6.07c-.35-.21-.46-.37-.49-.38.03-.05.14-.22.49-.43,1.26-.75,3.76-.75,5.01,0,.31.19.43.34.47.41-.04.07-.17.22-.47.41-1.26.75-3.76.75-5.01,0Z"/></svg>