<svg xmlns="http://www.w3.org/2000/svg" data-name="Layer 1" viewBox="0 0 512 512"><defs><clipPath id="a"><path d="M56.32 0h399.36v512H56.32z" style="fill:none"/></clipPath></defs><path d="m434.83 106.13-85.94-83.9H162.83l-86.38 84.6V406.3l86.38 84.59h186.06l85.94-83.66v-301.1Zm-269.99 37.01 34.78-34.04h112.67l34.75 34.04v226.78l-34.75 34.02H199.62l-34.78-34.02V143.14Z" style="fill:#ba0c2f"/><g style="clip-path:url(#a);fill:none"><path d="m205.94 122.2-27.23 26.64v215.59l26.63 26.05h101.4l26.41-25.84V149.21l-27.61-27.02h-99.6Zm118.3 238.82-21.22 20.78h-94.06l-20.9-20.46V152.2l21.74-21.28h92.42l22.03 21.57v208.54ZM358.3 0H154.74L56.32 96.29v318.84L154.06 512h203.56l98.06-96.3V96.29L358.3 0Zm89.02 411.82-93.75 90.96H158.7l-93.55-91.61V100.16L158.7 8.72l195.53-.02 93.08 91.46v311.66Z" style="fill:#646a6e"/></g></svg>